<?xml version="1.0" encoding="UTF-8"?>
<svg id="b" data-name="圖層 2" xmlns="http://www.w3.org/2000/svg" viewBox="0 0 55.2 35.86">
  <g id="c" data-name="首頁 - 未登入">
    <g>
      <path d="m55.2.53v1.06c-.23.57-.5,1.13-.7,1.71-1.95,5.61-5.51,10.04-10.21,13.58-3.47,2.61-7.59,3.3-11.82,3.51-2.86.14-5.66-.41-8.5-.59-.93-.06-1.8,0-2.19,1.06-1.01,2.68-2,5.37-5.17,6.56.93.46,1.63.32,2.33.19,2.35-.44,4.5-1.57,6.03-3.21,2.69-2.89,5.85-3.59,9.55-3.31,1.1.08,1.29.39,1.06,1.35-.71,2.9-2.13,5.42-4.13,7.6-3.98,4.33-8.97,6.12-14.83,5.78-4.58-.27-8.36-2.16-11.59-5.28-2.86-2.75-4.48-5.98-3.99-10.06.13-1.05-.2-2.01-1.03-2.75v-.26c1.89-.07,3.34.7,4.4,2.25.35.51.71,1.02,1.12,1.48,1.84,2.03,4.23,2.65,6.86,2.47.75-.05,1.51-.35,1.74-1.22.21-.78-.23-1.35-.75-1.87-.44-.45-.97-.75-1.52-1.06-1.25-.7-2.67-.96-3.97-1.51-.94-.4-1.69-1.04-1.7-2.16-.01-1.14.49-2.04,1.52-2.6.87-.48,1.82-.7,2.8-.78,1.33-.1,2.65-.23,3.98-.27,8.17-.27,16.16-1.6,24.01-3.82,5.13-1.45,10.19-3.11,14.59-6.28.71-.51,1.22-1.31,2.12-1.57Z" style="fill: #ebf1ff;"/>
      <path d="m20.27,0c2.6.72,5.22,1.39,7.53,2.89,1.92,1.25,3.55,2.77,4.92,4.59.59.78.45,1.28-.53,1.5-.74.16-1.47.33-2.21.48-.55.11-1.02,0-1.46-.42-2.99-2.78-6.75-3.34-10.4-1.47-2.36,1.21-4.61,2.64-7.35,2.92-2.35.25-4.61.12-6.7-1.09-1.24-.71-1.3-1.13-.42-2.27C6.42,3.57,10.01,1.33,14.46.44c.61-.12,1.2-.29,1.8-.44,1.33,0,2.67,0,4,0Z" style="fill: #ebf1ff;"/>
    </g>
  </g>
</svg>